# xmcd
#
# Track frame offsets:
#	150
#	14895
#	31275
#	44962
#	59142
#	75262
#	88820
#	102885
#	120687
#	135727
#	153345
#	172915
#
# Disc length: 2485 seconds
#
# Revision: 0
# Processed by: cddbd v1.5.2PL0 Copyright (c) Steve Scherf et al.
# Submitted via: EasyCDDAExtractor 12.0.1.1
#
DISCID=a209b30c
DTITLE=Ruud Hermans - Rocky Mountain Music
DYEAR=2005
DGENRE=Country
TTITLE0=Rocky Mountain Music
TTITLE1=Everybody Has His Own Dogs
TTITLE2=Born A Southern Belle
TTITLE3=That's Why I Love You
TTITLE4=Thinking About A Rendez-Vous
TTITLE5=Back Again
TTITLE6=I'll Never See Her Again
TTITLE7=She Darks The Sun
TTITLE8=I'm A Little Bit Lonesome
TTITLE9=Jewellery Store
TTITLE10=The Silver Tonqued Devil And I
TTITLE11=I Often Tell Myself
EXTD=
EXTT0=
EXTT1=
EXTT2=
EXTT3=
EXTT4=
EXTT5=
EXTT6=
EXTT7=
EXTT8=
EXTT9=
EXTT10=
EXTT11=
PLAYORDER=
